<?xml version="1.0" standalone="no"?>
<!DOCTYPE svg PUBLIC "-//W3C//DTD SVG 20010904//EN"
 "http://www.w3.org/TR/2001/REC-SVG-20010904/DTD/svg10.dtd">
<svg version="1.0" xmlns="http://www.w3.org/2000/svg"
 width="256.000000pt" height="256.000000pt" viewBox="0 0 256.000000 256.000000"
 preserveAspectRatio="xMidYMid meet">

<g transform="translate(0.000000,256.000000) scale(0.100000,-0.100000)"
fill="#000000" stroke="none">
<path d="M607 2293 c-2 -10 -8 -25 -11 -34 -5 -11 1 -19 19 -27 36 -17 40 -15
53 13 17 37 15 42 -19 54 -40 14 -36 14 -42 -6z"/>
<path d="M741 2202 l-20 -29 28 -21 29 -21 21 23 c26 28 26 33 -1 57 -30 24
-33 24 -57 -9z"/>
<path d="M863 2098 l-21 -23 21 -27 22 -27 30 23 30 24 -24 26 c-30 32 -32 32
-58 4z"/>
<path d="M962 1972 c-21 -16 -22 -21 -11 -45 14 -30 18 -32 54 -15 29 13 31
20 9 53 -19 30 -22 30 -52 7z"/>
<path d="M1038 1835 c-24 -14 -26 -18 -16 -45 11 -33 33 -38 63 -16 16 12 17
17 6 45 -15 35 -16 36 -53 16z"/>
<path d="M1082 1683 c-16 -3 -22 -9 -18 -20 3 -8 6 -23 6 -34 0 -13 7 -19 24
-19 45 0 54 8 47 43 -7 32 -18 38 -59 30z"/>
<path d="M1135 1549 c-148 -14 -314 -77 -462 -175 -96 -64 -213 -175 -258
-246 -24 -39 -35 -47 -68 -51 -27 -4 -51 -16 -71 -36 -26 -27 -31 -39 -31 -81
0 -43 5 -54 33 -82 28 -28 39 -33 82 -33 42 0 54 5 80 30 38 39 48 91 26 136
-16 32 -16 32 25 86 94 124 214 219 373 294 177 83 364 106 493 61 117 -41
180 -87 368 -272 101 -100 200 -188 225 -201 63 -33 188 -33 275 1 37 14 84
23 122 24 57 1 66 4 95 34 28 28 33 39 33 82 0 43 -5 54 -33 82 -28 28 -39 33
-82 33 -43 0 -54 -5 -82 -33 -28 -28 -33 -39 -33 -82 0 -49 -1 -50 -39 -65
-56 -23 -155 -30 -202 -15 -29 10 -81 55 -209 183 -198 197 -277 256 -409 304
-56 20 -166 29 -251 22z"/>
<path d="M1115 1360 c-4 -6 -3 -24 0 -41 6 -25 11 -30 28 -25 12 3 28 6 35 6
13 0 16 28 6 54 -7 18 -59 22 -69 6z"/>
<path d="M1166 1213 c-26 -4 -28 -7 -22 -35 3 -17 6 -34 6 -39 0 -7 59 -1 69
7 6 5 -10 74 -17 73 -4 -1 -20 -4 -36 -6z"/>
<path d="M1192 1053 c-18 -4 -21 -9 -16 -31 9 -39 18 -45 53 -37 28 6 30 10
25 33 -11 45 -10 45 -62 35z"/>
<path d="M1241 899 c-19 -8 -22 -14 -16 -37 11 -45 21 -47 82 -17 2 1 -3 16
-9 33 -13 34 -19 36 -57 21z"/>
<path d="M1308 752 l-27 -18 20 -33 19 -32 30 21 c29 21 29 22 15 51 -18 34
-21 35 -57 11z"/>
<path d="M1405 623 l-29 -26 29 -23 30 -24 25 25 25 25 -25 24 -25 25 -30 -26z"/>
<path d="M1527 520 l-18 -29 30 -16 c39 -20 38 -20 55 14 15 28 14 30 -9 45
-33 22 -38 21 -58 -14z"/>
<path d="M1671 449 c-6 -18 -10 -33 -9 -34 2 -1 17 -7 35 -13 30 -10 32 -9 42
21 13 34 8 43 -30 52 -23 6 -28 3 -38 -26z"/>
<path d="M1824 405 c-7 -42 -8 -40 33 -48 29 -6 32 -4 38 24 8 35 2 44 -37 53
-25 6 -28 3 -34 -29z"/>
<path d="M1987 404 c-4 -4 -7 -22 -7 -41 0 -31 2 -33 34 -33 30 0 34 3 39 33
2 17 4 33 3 33 -6 7 -64 13 -69 8z"/>
</g>
</svg>
